# xmcd CD database file
#
# Track frame offsets:
#	150
#	12180
#	26050
#	41947
#	55297
#	68237
#	82842
#	96152
#	109632
#	122637
#	135497
#	147567
#	162537
#	175427
#	188732
#	204102
#	216047
#	227809
#	241342
#	256762
#	269080
#	281817
#	295642
#
# Disc length: 4101 seconds
#
# Revision: 0
# Processed by: cddbd v1.5.2PL0 Copyright (c) Steve Scherf et al.
# Submitted via: CDex 1.70beta2
#
DISCID=55100317
DTITLE=Alex Hill - Ain't It Nice - The Recordings of Alex Hill 1 - 1928-1934 - Timeless
DYEAR=1928
DGENRE=Jazz
TTITLE0=Parkway Stomp
TTITLE1=Mississippi Wobble
TTITLE2=She's Funny That Way
TTITLE3=Shake That Jelly Roll
TTITLE4=Chicago Rhythm
TTITLE5=Once or Twice
TTITLE6=The Eel
TTITLE7=Tennessee Twilight
TTITLE8=Madam Dynamite
TTITLE9=Home Cooking
TTITLE10=Stompin' 'em Down
TTITLE11=Tack Head Blues
TTITLE12=Dyin' With the Blues
TTITLE13=Toogaloo Shout
TTITLE14=St. James Infirmary
TTITLE15=Southbound (a)
TTITLE16=Southbound (2)
TTITLE17=I'm Having My Fun
TTITLE18=You've Had Your Way
TTITLE19=Ain't It Nice?
TTITLE20=Functionizin'
TTITLE21=Song of the Plow
TTITLE22=Let's Have a Jubilee
EXTD=YEAR: 1928
EXTT0=
EXTT1=
EXTT2=
EXTT3=
EXTT4=
EXTT5=
EXTT6=
EXTT7=
EXTT8=
EXTT9=
EXTT10=
EXTT11=
EXTT12=
EXTT13=
EXTT14=
EXTT15=
EXTT16=
EXTT17=
EXTT18=
EXTT19=
EXTT20=
EXTT21=
EXTT22=
PLAYORDER=
